<?xml version="1.0" standalone="no"?>
<!DOCTYPE svg PUBLIC "-//W3C//DTD SVG 20010904//EN"
 "http://www.w3.org/TR/2001/REC-SVG-20010904/DTD/svg10.dtd">
<svg version="1.0" xmlns="http://www.w3.org/2000/svg"
 width="500.000000pt" height="500.000000pt" viewBox="0 0 500.000000 500.000000"
 preserveAspectRatio="xMidYMid meet">

<g transform="translate(0.000000,500.000000) scale(0.100000,-0.100000)"
fill="#000000" stroke="none">
<path d="M2331 2886 c-69 -38 -40 -146 38 -146 43 0 60 9 76 41 21 40 19 57
-14 90 -32 31 -62 36 -100 15z"/>
<path d="M4780 2748 l0 -141 -23 21 c-31 30 -89 52 -135 52 -90 0 -162 -46
-200 -129 -23 -49 -26 -69 -26 -156 0 -116 23 -185 80 -235 75 -65 201 -65
266 1 16 16 31 29 34 29 2 0 4 -16 4 -35 l0 -35 70 0 70 0 0 385 0 385 -70 0
-70 0 0 -142z m-53 -203 c38 -25 56 -73 56 -150 0 -114 -40 -167 -127 -167
-56 0 -90 23 -110 73 -39 98 -6 232 64 256 40 14 83 10 117 -12z"/>
<path d="M92 2578 c3 -270 3 -274 29 -329 40 -86 108 -125 231 -135 139 -12
245 33 298 127 25 44 25 46 28 327 l3 282 -70 0 -71 0 0 -256 c0 -284 -4 -304
-63 -339 -45 -27 -147 -26 -185 1 -58 43 -62 65 -62 342 l0 252 -71 0 -71 0 4
-272z"/>
<path d="M1520 2485 l0 -365 70 0 70 0 0 165 0 165 165 0 165 0 0 -165 0 -165
70 0 70 0 0 365 0 365 -70 0 -69 0 -3 -137 -3 -138 -162 -3 -163 -2 0 140 0
140 -70 0 -70 0 0 -365z"/>
<path d="M3588 2706 c-11 -35 -16 -41 -38 -37 -14 2 -59 4 -100 4 -60 1 -84
-3 -118 -21 -102 -54 -123 -193 -41 -275 21 -22 39 -41 39 -42 0 -1 -14 -8
-30 -15 -44 -18 -64 -62 -50 -106 6 -18 21 -40 32 -48 20 -14 20 -16 -21 -32
-53 -21 -75 -61 -68 -118 12 -88 112 -132 283 -124 119 5 183 31 222 89 20 29
23 44 20 101 -3 54 -8 72 -28 93 -33 35 -108 55 -206 55 -64 0 -87 4 -104 18
-19 16 -21 22 -11 40 10 19 20 22 75 22 107 0 175 34 207 104 25 55 24 93 -5
150 l-24 47 25 16 c25 17 53 62 53 86 0 9 -18 18 -50 24 l-49 10 -13 -41z
m-70 -152 c22 -25 29 -74 16 -109 -18 -47 -118 -56 -149 -12 -18 26 -19 96 -1
119 32 43 96 44 134 2z m44 -450 c10 -3 21 -17 24 -31 14 -55 -35 -85 -138
-85 -84 0 -121 21 -126 70 -5 51 25 64 133 57 50 -4 98 -9 107 -11z"/>
<path d="M1096 2670 c-16 -5 -47 -26 -68 -47 l-38 -37 0 42 0 42 -65 0 -65 0
0 -275 0 -275 65 0 65 0 0 168 c0 154 2 171 23 212 17 36 30 48 61 58 48 15
90 8 116 -21 18 -19 20 -36 20 -219 l0 -198 71 0 71 0 -4 218 c-3 204 -5 220
-26 260 -37 69 -133 99 -226 72z"/>
<path d="M2843 2669 c-18 -5 -48 -25 -66 -44 -19 -19 -37 -35 -41 -35 -3 0 -6
18 -6 40 l0 40 -65 0 -65 0 0 -275 0 -275 70 0 70 0 0 170 c0 187 8 225 55
256 14 9 47 18 71 18 38 1 50 -4 70 -27 24 -28 24 -31 24 -223 l0 -194 70 0
70 0 0 168 c-1 256 -13 314 -82 365 -29 22 -127 31 -175 16z"/>
<path d="M3967 2666 c-92 -34 -148 -99 -168 -195 -22 -106 6 -224 67 -285 107
-107 339 -94 407 23 l18 31 -46 29 -45 29 -34 -34 c-30 -30 -40 -34 -90 -34
-30 0 -67 5 -81 12 -28 13 -65 74 -65 108 0 19 5 20 180 20 l180 0 6 26 c11
42 -12 153 -41 195 -14 21 -44 48 -68 60 -53 28 -166 35 -220 15z m126 -97
c40 -11 61 -36 72 -86 l7 -33 -122 0 c-121 0 -121 0 -115 23 15 48 42 82 75
94 44 15 38 15 83 2z"/>
<path d="M2310 2395 l0 -275 65 0 65 0 0 275 0 275 -65 0 -65 0 0 -275z"/>
</g>
</svg>
